# xmcd
#
# Track frame offsets: 
#        182
#        18107
#        35565
#        49822
#        66290
#        84207
#        98710
#        114872
#        129435
#        144490
#        159397
#        176165
#
# Disc length: 2599 seconds
#
# Revision: 3
# Processed by: cddbd v1.5PL3 Copyright (c) Steve Scherf et al.
# Submitted via: ExactAudioCopy v0.95a3
#
DISCID=920a250c
DTITLE=Jeff Carson - Butterfly Kisses
DYEAR=1997
DGENRE=Country
TTITLE0=Butterfly Kisses
TTITLE1=Here's The Deal
TTITLE2=She's The One
TTITLE3=Do It Again
TTITLE4=Try Bein' Me
TTITLE5=If You Wanna Get To Heaven
TTITLE6=The Stone
TTITLE7=Hangin' By A Thread
TTITLE8=As One As Two Can Get
TTITLE9=Cheatin' On Her Heart
TTITLE10=Today I Started To Love You Again (Duet With Merle Haggard)
TTITLE11=Butterfly Kisses - Daddy's Little Girl (Duet With Kippi Brann
TTITLE11=on)
EXTD=
EXTT0=
EXTT1=\n
EXTT2=
EXTT3=
EXTT4=
EXTT5=
EXTT6=
EXTT7=
EXTT8=
EXTT9=
EXTT10=
EXTT11=
PLAYORDER=
